<svg width="162" height="38" viewBox="0 0 162 38" version="1.1" xmlns="http://www.w3.org/2000/svg" xmlns:xlink="http://www.w3.org/1999/xlink" xmlns:figma="http://www.figma.com/figma/ns">
<title>Group 6</title>
<desc>Created using Figma</desc>
<g id="Canvas" transform="translate(-4666 70)" figma:type="canvas">
<g id="Group 6" style="mix-blend-mode:normal;" figma:type="frame">
<g id="Interns" style="mix-blend-mode:normal;" figma:type="text">
<use xlink:href="#path0_fill" transform="translate(4664 -78)" fill="#9B9B9B" style="mix-blend-mode:normal;"/>
</g>
<g id="Life" style="mix-blend-mode:normal;" figma:type="text">
<use xlink:href="#path1_fill" transform="translate(4794 -52)" fill="#9B9B9B" style="mix-blend-mode:normal;"/>
</g>
</g>
</g>
<defs>
<path id="path0_fill" d="M 8.76953 37L 2.91016 37L 2.91016 8.5625L 8.76953 8.5625L 8.76953 37ZM 19.043 15.8672L 19.2188 18.3086C 20.7292 16.4206 22.7539 15.4766 25.293 15.4766C 27.5326 15.4766 29.1992 16.1341 30.293 17.4492C 31.3867 18.7643 31.9466 20.7305 31.9727 23.3477L 31.9727 37L 26.3281 37L 26.3281 23.4844C 26.3281 22.2865 26.0677 21.4206 25.5469 20.8867C 25.026 20.3398 24.1602 20.0664 22.9492 20.0664C 21.3607 20.0664 20.1693 20.7435 19.375 22.0977L 19.375 37L 13.7305 37L 13.7305 15.8672L 19.043 15.8672ZM 43.0273 10.6719L 43.0273 15.8672L 46.6406 15.8672L 46.6406 20.0078L 43.0273 20.0078L 43.0273 30.5547C 43.0273 31.3359 43.1771 31.8958 43.4766 32.2344C 43.776 32.5729 44.349 32.7422 45.1953 32.7422C 45.8203 32.7422 46.3737 32.6966 46.8555 32.6055L 46.8555 36.8828C 45.7487 37.2214 44.6094 37.3906 43.4375 37.3906C 39.4792 37.3906 37.4609 35.3919 37.3828 31.3945L 37.3828 20.0078L 34.2969 20.0078L 34.2969 15.8672L 37.3828 15.8672L 37.3828 10.6719L 43.0273 10.6719ZM 59.5117 37.3906C 56.4128 37.3906 53.8867 36.4401 51.9336 34.5391C 49.9935 32.638 49.0234 30.1055 49.0234 26.9414L 49.0234 26.3945C 49.0234 24.2721 49.4336 22.3776 50.2539 20.7109C 51.0742 19.0312 52.2331 17.7422 53.7305 16.8438C 55.2409 15.9323 56.9596 15.4766 58.8867 15.4766C 61.7773 15.4766 64.0495 16.388 65.7031 18.2109C 67.3698 20.0339 68.2031 22.6185 68.2031 25.9648L 68.2031 28.2695L 54.7461 28.2695C 54.9284 29.6497 55.4753 30.7565 56.3867 31.5898C 57.3112 32.4232 58.4766 32.8398 59.8828 32.8398C 62.0573 32.8398 63.7565 32.0521 64.9805 30.4766L 67.7539 33.582C 66.9076 34.7799 65.7617 35.7174 64.3164 36.3945C 62.8711 37.0586 61.2695 37.3906 59.5117 37.3906ZM 58.8672 20.0469C 57.7474 20.0469 56.8359 20.4245 56.1328 21.1797C 55.4427 21.9349 55 23.0156 54.8047 24.4219L 62.6562 24.4219L 62.6562 23.9727C 62.6302 22.7227 62.2917 21.7591 61.6406 21.082C 60.9896 20.3919 60.0651 20.0469 58.8672 20.0469ZM 83.3008 21.1602C 82.5326 21.056 81.8555 21.0039 81.2695 21.0039C 79.1341 21.0039 77.7344 21.7266 77.0703 23.1719L 77.0703 37L 71.4258 37L 71.4258 15.8672L 76.7578 15.8672L 76.9141 18.3867C 78.0469 16.4466 79.6159 15.4766 81.6211 15.4766C 82.2461 15.4766 82.832 15.5612 83.3789 15.7305L 83.3008 21.1602ZM 91.2305 15.8672L 91.4062 18.3086C 92.9167 16.4206 94.9414 15.4766 97.4805 15.4766C 99.7201 15.4766 101.387 16.1341 102.48 17.4492C 103.574 18.7643 104.134 20.7305 104.16 23.3477L 104.16 37L 98.5156 37L 98.5156 23.4844C 98.5156 22.2865 98.2552 21.4206 97.7344 20.8867C 97.2135 20.3398 96.3477 20.0664 95.1367 20.0664C 93.5482 20.0664 92.3568 20.7435 91.5625 22.0977L 91.5625 37L 85.918 37L 85.918 15.8672L 91.2305 15.8672ZM 119.902 31.1602C 119.902 30.4701 119.557 29.9297 118.867 29.5391C 118.19 29.1354 117.096 28.7773 115.586 28.4648C 110.56 27.4102 108.047 25.2747 108.047 22.0586C 108.047 20.1836 108.822 18.6211 110.371 17.3711C 111.934 16.1081 113.971 15.4766 116.484 15.4766C 119.167 15.4766 121.309 16.1081 122.91 17.3711C 124.525 18.6341 125.332 20.2747 125.332 22.293L 119.688 22.293C 119.688 21.4857 119.427 20.8216 118.906 20.3008C 118.385 19.7669 117.572 19.5 116.465 19.5C 115.514 19.5 114.779 19.7148 114.258 20.1445C 113.737 20.5742 113.477 21.1211 113.477 21.7852C 113.477 22.4102 113.77 22.918 114.355 23.3086C 114.954 23.6862 115.957 24.0182 117.363 24.3047C 118.77 24.5781 119.954 24.8906 120.918 25.2422C 123.9 26.3359 125.391 28.2305 125.391 30.9258C 125.391 32.8529 124.564 34.4154 122.91 35.6133C 121.257 36.7982 119.121 37.3906 116.504 37.3906C 114.733 37.3906 113.158 37.0781 111.777 36.4531C 110.41 35.8151 109.336 34.9492 108.555 33.8555C 107.773 32.7487 107.383 31.5573 107.383 30.2812L 112.734 30.2812C 112.786 31.2839 113.158 32.0521 113.848 32.5859C 114.538 33.1198 115.462 33.3867 116.621 33.3867C 117.702 33.3867 118.516 33.1849 119.062 32.7812C 119.622 32.3646 119.902 31.8242 119.902 31.1602Z"/>
<path id="path1_fill" d="M 4.19922 16.6465L 10.4199 16.6465L 10.4199 19L 1.26953 19L 1.26953 4.78125L 4.19922 4.78125L 4.19922 16.6465ZM 14.9023 19L 12.0703 19L 12.0703 8.43359L 14.9023 8.43359L 14.9023 19ZM 11.9043 5.69922C 11.9043 5.27604 12.0443 4.92773 12.3242 4.6543C 12.6107 4.38086 12.998 4.24414 13.4863 4.24414C 13.9681 4.24414 14.3522 4.38086 14.6387 4.6543C 14.9251 4.92773 15.0684 5.27604 15.0684 5.69922C 15.0684 6.12891 14.9219 6.48047 14.6289 6.75391C 14.3424 7.02734 13.9616 7.16406 13.4863 7.16406C 13.0111 7.16406 12.627 7.02734 12.334 6.75391C 12.0475 6.48047 11.9043 6.12891 11.9043 5.69922ZM 18.0078 19L 18.0078 10.5039L 16.4355 10.5039L 16.4355 8.43359L 18.0078 8.43359L 18.0078 7.53516C 18.0078 6.35026 18.3464 5.43229 19.0234 4.78125C 19.707 4.1237 20.6608 3.79492 21.8848 3.79492C 22.2754 3.79492 22.7539 3.86003 23.3203 3.99023L 23.291 6.17773C 23.0566 6.11914 22.7702 6.08984 22.4316 6.08984C 21.3704 6.08984 20.8398 6.58789 20.8398 7.58398L 20.8398 8.43359L 22.9395 8.43359L 22.9395 10.5039L 20.8398 10.5039L 20.8398 19L 18.0078 19ZM 29.0332 19.1953C 27.4837 19.1953 26.2207 18.7201 25.2441 17.7695C 24.2741 16.819 23.7891 15.5527 23.7891 13.9707L 23.7891 13.6973C 23.7891 12.6361 23.9941 11.6888 24.4043 10.8555C 24.8145 10.0156 25.3939 9.37109 26.1426 8.92188C 26.8978 8.46615 27.7572 8.23828 28.7207 8.23828C 30.166 8.23828 31.3021 8.69401 32.1289 9.60547C 32.9622 10.5169 33.3789 11.8092 33.3789 13.4824L 33.3789 14.6348L 26.6504 14.6348C 26.7415 15.3249 27.015 15.8783 27.4707 16.2949C 27.9329 16.7116 28.5156 16.9199 29.2188 16.9199C 30.306 16.9199 31.1556 16.526 31.7676 15.7383L 33.1543 17.291C 32.7311 17.89 32.1582 18.3587 31.4355 18.6973C 30.7129 19.0293 29.9121 19.1953 29.0332 19.1953ZM 28.7109 10.5234C 28.151 10.5234 27.6953 10.7122 27.3438 11.0898C 26.9987 11.4674 26.7773 12.0078 26.6797 12.7109L 30.6055 12.7109L 30.6055 12.4863C 30.5924 11.8613 30.4232 11.3796 30.0977 11.041C 29.7721 10.696 29.3099 10.5234 28.7109 10.5234Z"/>
</defs>
</svg>
