<svg width="173" height="31" viewBox="0 0 173 31" version="1.1" xmlns="http://www.w3.org/2000/svg" xmlns:xlink="http://www.w3.org/1999/xlink" xmlns:figma="http://www.figma.com/figma/ns">
<title>Group 6</title>
<desc>Created using Figma</desc>
<g id="Canvas" transform="translate(-5258 -938)" figma:type="canvas">
<g id="Group 6" style="mix-blend-mode:normal;" figma:type="frame">
<g id="DevWizza" style="mix-blend-mode:normal;" figma:type="text">
<use xlink:href="#path0_fill" transform="translate(5256 931)" fill="#9B9B9B" style="mix-blend-mode:normal;"/>
</g>
</g>
</g>
<defs>
<path id="path0_fill" d="M 2.53906 37L 2.53906 8.5625L 11.2891 8.5625C 13.7891 8.5625 16.0221 9.12891 17.9883 10.2617C 19.9674 11.3815 21.5104 12.9831 22.6172 15.0664C 23.724 17.1367 24.2773 19.4935 24.2773 22.1367L 24.2773 23.4453C 24.2773 26.0885 23.7305 28.4388 22.6367 30.4961C 21.556 32.5534 20.026 34.1484 18.0469 35.2812C 16.0677 36.4141 13.8346 36.987 11.3477 37L 2.53906 37ZM 8.39844 13.3086L 8.39844 32.293L 11.2305 32.293C 13.5221 32.293 15.2734 31.5443 16.4844 30.0469C 17.6953 28.5495 18.3138 26.4076 18.3398 23.6211L 18.3398 22.1172C 18.3398 19.2266 17.7409 17.0391 16.543 15.5547C 15.3451 14.0573 13.5938 13.3086 11.2891 13.3086L 8.39844 13.3086ZM 37.9102 37.3906C 34.8112 37.3906 32.2852 36.4401 30.332 34.5391C 28.3919 32.638 27.4219 30.1055 27.4219 26.9414L 27.4219 26.3945C 27.4219 24.2721 27.832 22.3776 28.6523 20.7109C 29.4727 19.0312 30.6315 17.7422 32.1289 16.8438C 33.6393 15.9323 35.3581 15.4766 37.2852 15.4766C 40.1758 15.4766 42.4479 16.388 44.1016 18.2109C 45.7682 20.0339 46.6016 22.6185 46.6016 25.9648L 46.6016 28.2695L 33.1445 28.2695C 33.3268 29.6497 33.8737 30.7565 34.7852 31.5898C 35.7096 32.4232 36.875 32.8398 38.2812 32.8398C 40.4557 32.8398 42.1549 32.0521 43.3789 30.4766L 46.1523 33.582C 45.306 34.7799 44.1602 35.7174 42.7148 36.3945C 41.2695 37.0586 39.668 37.3906 37.9102 37.3906ZM 37.2656 20.0469C 36.1458 20.0469 35.2344 20.4245 34.5312 21.1797C 33.8411 21.9349 33.3984 23.0156 33.2031 24.4219L 41.0547 24.4219L 41.0547 23.9727C 41.0286 22.7227 40.6901 21.7591 40.0391 21.082C 39.388 20.3919 38.4635 20.0469 37.2656 20.0469ZM 57.5 30.1055L 61.4258 15.8672L 67.3242 15.8672L 60.1953 37L 54.8047 37L 47.6758 15.8672L 53.5742 15.8672L 57.5 30.1055ZM 92.3438 28.7969L 96.1719 8.5625L 102.012 8.5625L 95.7031 37L 89.8047 37L 85.1758 17.9766L 80.5469 37L 74.6484 37L 68.3398 8.5625L 74.1797 8.5625L 78.0273 28.7578L 82.7148 8.5625L 87.6758 8.5625L 92.3438 28.7969ZM 110.781 37L 105.117 37L 105.117 15.8672L 110.781 15.8672L 110.781 37ZM 104.785 10.3984C 104.785 9.55208 105.065 8.85547 105.625 8.30859C 106.198 7.76172 106.973 7.48828 107.949 7.48828C 108.913 7.48828 109.681 7.76172 110.254 8.30859C 110.827 8.85547 111.113 9.55208 111.113 10.3984C 111.113 11.2578 110.82 11.9609 110.234 12.5078C 109.661 13.0547 108.9 13.3281 107.949 13.3281C 106.999 13.3281 106.23 13.0547 105.645 12.5078C 105.072 11.9609 104.785 11.2578 104.785 10.3984ZM 121.934 32.4492L 132.266 32.4492L 132.266 37L 114.727 37L 114.727 33.5625L 124.668 20.4375L 115.02 20.4375L 115.02 15.8672L 131.953 15.8672L 131.953 19.207L 121.934 32.4492ZM 142.285 32.4492L 152.617 32.4492L 152.617 37L 135.078 37L 135.078 33.5625L 145.02 20.4375L 135.371 20.4375L 135.371 15.8672L 152.305 15.8672L 152.305 19.207L 142.285 32.4492ZM 168.398 37C 168.138 36.4922 167.949 35.8607 167.832 35.1055C 166.465 36.6289 164.688 37.3906 162.5 37.3906C 160.43 37.3906 158.711 36.7917 157.344 35.5938C 155.99 34.3958 155.312 32.8854 155.312 31.0625C 155.312 28.8229 156.139 27.1042 157.793 25.9062C 159.46 24.7083 161.862 24.1029 165 24.0898L 167.598 24.0898L 167.598 22.8789C 167.598 21.9023 167.344 21.1211 166.836 20.5352C 166.341 19.9492 165.553 19.6562 164.473 19.6562C 163.522 19.6562 162.773 19.8841 162.227 20.3398C 161.693 20.7956 161.426 21.4206 161.426 22.2148L 155.781 22.2148C 155.781 20.9909 156.159 19.8581 156.914 18.8164C 157.669 17.7747 158.737 16.9609 160.117 16.375C 161.497 15.776 163.047 15.4766 164.766 15.4766C 167.37 15.4766 169.434 16.1341 170.957 17.4492C 172.493 18.7513 173.262 20.5872 173.262 22.957L 173.262 32.1172C 173.275 34.1224 173.555 35.6393 174.102 36.668L 174.102 37L 168.398 37ZM 163.73 33.0742C 164.564 33.0742 165.332 32.8919 166.035 32.5273C 166.738 32.1497 167.259 31.6484 167.598 31.0234L 167.598 27.3906L 165.488 27.3906C 162.663 27.3906 161.159 28.3672 160.977 30.3203L 160.957 30.6523C 160.957 31.3555 161.204 31.9349 161.699 32.3906C 162.194 32.8464 162.871 33.0742 163.73 33.0742Z"/>
</defs>
</svg>
