<svg width="139" height="37" viewBox="0 0 139 37" version="1.1" xmlns="http://www.w3.org/2000/svg" xmlns:xlink="http://www.w3.org/1999/xlink" xmlns:figma="http://www.figma.com/figma/ns">
<title>Vector</title>
<desc>Created using Figma</desc>
<g id="Canvas" transform="translate(95 32)" figma:type="canvas">
<g id="Vector" figma:type="vector">
<use xlink:href="#path0_fill" transform="translate(-95 -32)" fill="#9B9B9B"/>
<use xlink:href="#path1_fill" transform="translate(-95 -32)" fill="#9B9B9B"/>
</g>
</g>
<defs>
<path id="path0_fill" d="M 5.85937 28.4375L 0 28.4375L 0 0L 5.85937 0L 5.85937 28.4375ZM 16.1328 7.3047L 16.3086 9.7461C 17.819 7.8581 19.8437 6.9141 22.3828 6.9141C 24.6224 6.9141 26.289 7.5716 27.3828 8.8867C 28.4765 10.2018 29.0364 12.168 29.0625 14.7852L 29.0625 28.4375L 23.4179 28.4375L 23.4179 14.9219C 23.4179 13.724 23.1575 12.8581 22.6367 12.3242C 22.1158 11.7773 21.25 11.5039 20.039 11.5039C 18.4505 11.5039 17.2591 12.181 16.4648 13.5352L 16.4648 28.4375L 10.8203 28.4375L 10.8203 7.3047L 16.1328 7.3047ZM 40.1171 2.1094L 40.1171 7.3047L 43.7304 7.3047L 43.7304 11.4453L 40.1171 11.4453L 40.1171 21.9922C 40.1171 22.7734 40.2669 23.3333 40.5664 23.6719C 40.8658 24.0104 41.4388 24.1797 42.2851 24.1797C 42.9101 24.1797 43.4635 24.1341 43.9453 24.043L 43.9453 28.3203C 42.8385 28.6589 41.6992 28.8281 40.5273 28.8281C 36.569 28.8281 34.5507 26.8294 34.4726 22.832L 34.4726 11.4453L 31.3867 11.4453L 31.3867 7.3047L 34.4726 7.3047L 34.4726 2.1094L 40.1171 2.1094ZM 56.6015 28.8281C 53.5026 28.8281 50.9765 27.8776 49.0234 25.9766C 47.0833 24.0755 46.1132 21.543 46.1132 18.3789L 46.1132 17.832C 46.1132 15.7096 46.5234 13.8151 47.3437 12.1484C 48.164 10.4687 49.3229 9.1797 50.8203 8.2813C 52.3307 7.3698 54.0494 6.9141 55.9765 6.9141C 58.8671 6.9141 61.1393 7.8255 62.7929 9.6484C 64.4596 11.4714 65.2929 14.056 65.2929 17.4023L 65.2929 19.707L 51.8359 19.707C 52.0182 21.0872 52.5651 22.194 53.4765 23.0273C 54.401 23.8607 55.5664 24.2773 56.9726 24.2773C 59.1471 24.2773 60.8463 23.4896 62.0703 21.9141L 64.8437 25.0195C 63.9974 26.2174 62.8515 27.1549 61.4062 27.832C 59.9609 28.4961 58.3593 28.8281 56.6015 28.8281ZM 55.957 11.4844C 54.8372 11.4844 53.9257 11.862 53.2226 12.6172C 52.5325 13.3724 52.0898 14.4531 51.8945 15.8594L 59.746 15.8594L 59.746 15.4102C 59.72 14.1602 59.3815 13.1966 58.7304 12.5195C 58.0794 11.8294 57.1549 11.4844 55.957 11.4844ZM 80.3906 12.5977C 79.6224 12.4935 78.9453 12.4414 78.3593 12.4414C 76.2239 12.4414 74.8242 13.1641 74.1601 14.6094L 74.1601 28.4375L 68.5156 28.4375L 68.5156 7.3047L 73.8476 7.3047L 74.0039 9.8242C 75.1367 7.8841 76.7057 6.9141 78.7109 6.9141C 79.3359 6.9141 79.9218 6.9987 80.4687 7.168L 80.3906 12.5977ZM 88.3203 7.3047L 88.496 9.7461C 90.0065 7.8581 92.0312 6.9141 94.5703 6.9141C 96.8099 6.9141 98.4768 7.5716 99.5698 8.8867C 100.664 10.2018 101.224 12.168 101.25 14.7852L 101.25 28.4375L 95.6054 28.4375L 95.6054 14.9219C 95.6054 13.724 95.345 12.8581 94.8242 12.3242C 94.3033 11.7773 93.4375 11.5039 92.2265 11.5039C 90.638 11.5039 89.4466 12.181 88.6523 13.5352L 88.6523 28.4375L 83.0078 28.4375L 83.0078 7.3047L 88.3203 7.3047Z"/>
<path id="path1_fill" d="M 109.289 34.084L 115.51 34.084L 115.51 36.4375L 106.359 36.4375L 106.359 22.2188L 109.289 22.2188L 109.289 34.084ZM 119.992 36.4375L 117.16 36.4375L 117.16 25.8711L 119.992 25.8711L 119.992 36.4375ZM 116.994 23.1367C 116.994 22.7135 117.134 22.3652 117.414 22.0918C 117.701 21.8184 118.088 21.6816 118.576 21.6816C 119.058 21.6816 119.442 21.8184 119.729 22.0918C 120.015 22.3652 120.158 22.7135 120.158 23.1367C 120.158 23.5664 120.012 23.918 119.719 24.1914C 119.432 24.4648 119.051 24.6016 118.576 24.6016C 118.101 24.6016 117.717 24.4648 117.424 24.1914C 117.137 23.918 116.994 23.5664 116.994 23.1367ZM 123.098 36.4375L 123.098 27.9414L 121.525 27.9414L 121.525 25.8711L 123.098 25.8711L 123.098 24.9727C 123.098 23.7878 123.436 22.8698 124.113 22.2188C 124.797 21.5612 125.751 21.2324 126.975 21.2324C 127.365 21.2324 127.844 21.2975 128.41 21.4277L 128.381 23.6152C 128.146 23.5566 127.86 23.5273 127.521 23.5273C 126.46 23.5273 125.93 24.0254 125.93 25.0215L 125.93 25.8711L 128.029 25.8711L 128.029 27.9414L 125.93 27.9414L 125.93 36.4375L 123.098 36.4375ZM 134.123 36.6328C 132.574 36.6328 131.311 36.1576 130.334 35.207C 129.364 34.2565 128.879 32.9902 128.879 31.4082L 128.879 31.1348C 128.879 30.0736 129.084 29.1263 129.494 28.293C 129.904 27.4531 130.484 26.8086 131.232 26.3594C 131.988 25.9037 132.847 25.6758 133.811 25.6758C 135.256 25.6758 136.392 26.1315 137.219 27.043C 138.052 27.9544 138.469 29.2467 138.469 30.9199L 138.469 32.0723L 131.74 32.0723C 131.831 32.7624 132.105 33.3158 132.561 33.7324C 133.023 34.1491 133.605 34.3574 134.309 34.3574C 135.396 34.3574 136.245 33.9635 136.857 33.1758L 138.244 34.7285C 137.821 35.3275 137.248 35.7962 136.525 36.1348C 135.803 36.4668 135.002 36.6328 134.123 36.6328ZM 133.801 27.9609C 133.241 27.9609 132.785 28.1497 132.434 28.5273C 132.089 28.9049 131.867 29.4453 131.77 30.1484L 135.695 30.1484L 135.695 29.9238C 135.682 29.2988 135.513 28.8171 135.188 28.4785C 134.862 28.1335 134.4 27.9609 133.801 27.9609Z"/>
</defs>
</svg>
